<svg viewBox="-19.54 -480.991 630.412 1841.592" xmlns="http://www.w3.org/2000/svg"><defs><linearGradient x1="0%" y1="100%" x2="100%" y2="0%" id="b"><stop stop-color="rgba(37, 99, 235, 1)" offset="0"/><stop stop-opacity="0" stop-color="rgba(37, 99, 235, 1)" offset=".66"/></linearGradient><linearGradient x1="100%" y1="100%" x2="0%" y2="0%" id="c"><stop stop-color="rgba(37, 99, 235, 1)" offset="0"/><stop stop-opacity="0" stop-color="rgba(37, 99, 235, 1)" offset=".66"/></linearGradient><mask id="a"><path fill="#fff" d="M0 0h1440v250H0z"/></mask></defs><g mask="url(&quot;#a&quot;)" fill="none" style="transform-origin:720px 125px" transform="matrix(0 -1.27883 2.52117 0 -423.854 314.905)"><path fill="rgba(29, 78, 216, 1)" d="M0 0h1440v250H0z"/><path d="M24 250 274 0h142.5l-250 250zM271.6 250l250-250h327l-250 250z" fill="url(&quot;#b&quot;)"/><path d="m490.2 250 250-250h349.5l-250 250z" fill="url(&quot;#b&quot;)"/><path d="m719.8 250 250-250h357l-250 250z" fill="url(&quot;#b&quot;)"/><path d="M1432 250 1182 0h-70.5l250 250zM1194.4 250 944.4 0H771.9l250 250zM916.8 250 666.8 0h-123l250 250zM701.2 250 451.2 0h-282l250 250z" fill="url(&quot;#c&quot;)"/><path d="M1312.888 250 1440 122.888V250z" fill="url(&quot;#b&quot;)"/><path d="M0 250h127.112L0 122.888z" fill="url(&quot;#c&quot;)"/></g></svg>